<svg version="1.2" xmlns="http://www.w3.org/2000/svg" viewBox="0 0 64 60" width="64" height="60"><defs><linearGradient id="P" gradientUnits="userSpaceOnUse"/><linearGradient id="g1" x1="2" y1="0" x2="62" y2="60" href="#P"><stop stop-color="#02cfe4"/><stop offset="1" stop-color="#1673dc"/></linearGradient></defs><style>.a{fill:url(#g1)}</style><path fill-rule="evenodd" class="a" d="m48.9 0c-5.2 0-10.9 4.2-11.2 11.1-0.1 2.2 0.9 4.4 1.9 6.7q0.3 0.8 0.7 1.6c1-4.9 5.3-8.8 10-8.8 0.6 0 1.1 0.6 1.1 1.2 0 0.6-0.5 1.1-1.1 1.1-4.2 0-8 4.2-8 8.9 0 0.5-0.4 0.9-0.8 1-3.1-1.4-6.1-6.2-6.1-12.1 0-0.6-0.5-1.1-1.1-1.1-0.6 0-1.2 0.5-1.2 1.1 0 5.7 2.6 10.9 6 13.4-3.2 1.2-5.7 3.6-7.1 6.6-1.4-3-3.9-5.4-7.1-6.6 3.4-2.5 6-7.7 6-13.4 0-0.6-0.6-1.1-1.2-1.1-0.6 0-1.1 0.5-1.1 1.1 0 5.9-3 10.7-6.1 12.1-0.4-0.1-0.8-0.5-0.8-1 0-4.7-3.8-8.9-8-8.9-0.6 0-1.1-0.5-1.1-1.1 0-0.6 0.5-1.2 1.1-1.2 4.7 0 9 3.9 10 8.8q0.4-0.8 0.7-1.6c1-2.3 2-4.5 1.9-6.7-0.3-6.9-6-11.1-11.2-11.1-8.3 0-15.1 11.3-15.1 25.2 0 13.9 6.8 25.2 15.1 25.2 3.1 0 8.8 0 11.1-6.5 0.9-2.5-0.2-5.6-1.5-9.1-0.7-1.7-1.4-3.6-1.9-5.5-1.2 4.2-4.6 7.7-9.1 7.7-0.6 0-1.1-0.5-1.1-1.1 0-0.7 0.5-1.2 1.1-1.2 4.4 0 7.4-4.7 7.4-9.1 5.4 0.3 9.8 4.8 9.8 10.3v23c0 0.6 0.5 1.1 1.1 1.1 0.6 0 1.1-0.5 1.1-1.1v-23c0-5.5 4.4-10 9.8-10.3 0 4.4 3 9.1 7.4 9.1 0.6 0 1.1 0.5 1.1 1.2 0 0.6-0.5 1.1-1.1 1.1-4.5 0-7.9-3.5-9.1-7.7-0.5 1.9-1.2 3.8-1.9 5.5-1.3 3.5-2.4 6.6-1.5 9.1 2.3 6.5 8 6.5 11.1 6.5 8.3 0 15.1-11.3 15.1-25.2 0-13.9-6.8-25.2-15.1-25.2zm-35.2 25.6c-0.6 0-1.1-0.5-1.1-1.1 0-0.7 0.5-1.2 1.1-1.2h6.9c-0.7 0-1.2 0.5-1.2 1.2 0 0.6 0.5 1.1 1.2 1.1zm36.5 0h-6.8c0.6 0 1.1-0.5 1.1-1.1 0-0.7-0.5-1.2-1.1-1.2h6.8c0.7 0 1.2 0.5 1.2 1.2 0 0.6-0.5 1.1-1.2 1.1z"/></svg>