<svg version="1.2" xmlns="http://www.w3.org/2000/svg" viewBox="0 0 50 58" width="50" height="58"><defs><linearGradient id="P" gradientUnits="userSpaceOnUse"/><linearGradient id="g1" x1="0" y1="4" x2="50" y2="54" href="#P"><stop stop-color="#02cfe4"/><stop offset="1" stop-color="#1673dc"/></linearGradient></defs><style>.a{fill:url(#g1)}</style><path class="a" d="m9.3 12.9l0.1 0.1q0.4 0.3 0.7 0.6 1.3 1.3 2.6 2.7v0.1q0.1 0.2 0.3 0.4 0.1 0.2 0.3 0.3 0.1 0.2 0.1 0.3 0.3 0.3 0.5 0.6v0.1q0.9 1.2 1.5 2.5 0.1-0.1 0.1-0.1 0.3-0.2 0.6-0.4 0 0 0.1-0.1 0.3-0.2 0.6-0.4 0.1 0 0.2-0.1 0.4-0.2 0.9-0.4 0.1-0.1 0.2-0.1 0.4-0.2 0.8-0.4 0.1 0 0.2 0 0.6-0.2 1.1-0.4 0.2 0 0.3-0.1 0.5-0.1 1.1-0.2 0.1 0 0.2 0 0.6-0.2 1.3-0.2 0.2 0 0.4-0.1 0.7 0 1.5 0 0.8 0 1.6 0 0.1 0.1 0.3 0.1 0.7 0 1.3 0.2 0.1 0 0.2 0 0.6 0.1 1.1 0.2 0.2 0.1 0.3 0.1 0.6 0.2 1.1 0.4 0.1 0 0.2 0 0.5 0.2 0.9 0.4 0.1 0 0.1 0.1 0.5 0.2 0.9 0.4 0.1 0.1 0.2 0.1 0.3 0.2 0.7 0.4 0 0.1 0 0.1 0.4 0.2 0.6 0.4 0.1 0 0.1 0.1 0.9-1.8 2.1-3.3v-0.1q0.2-0.3 0.5-0.6 0-0.1 0.1-0.2 0.2-0.1 0.3-0.3l0.1-0.1q0.3-0.4 0.6-0.7 0.8-0.9 1.7-1.7 0.3-0.3 0.6-0.6l0.1-0.1c1.9-1.8 3.1-3 3.1-4.7 0-5.4-5.4-8.3-10.4-8.3-2.6 0-3.1 1.4-3.8 3.8-0.6 1.9-1.3 4.5-4.6 4.5-3.3 0-4-2.6-4.6-4.5-0.6-2.4-1.2-3.8-3.7-3.8-5.1 0-10.4 2.9-10.4 8.3 0 1.7 1.2 2.9 3 4.7zm23.7 9q-0.3-0.2-0.6-0.4-0.2 0-0.4-0.1-0.3-0.2-0.6-0.4-0.2-0.1-0.4-0.2-0.4-0.1-0.7-0.2-0.3-0.1-0.5-0.2-0.4-0.2-0.9-0.3-0.2 0-0.5-0.1-0.5-0.1-1.1-0.2-0.2 0-0.5-0.1-1.8-0.1-3.6 0-0.2 0.1-0.5 0.1-0.5 0.1-1 0.2-0.3 0.1-0.6 0.1-0.4 0.1-0.8 0.3-0.3 0.1-0.5 0.2-0.4 0.1-0.8 0.2-0.2 0.1-0.4 0.2-0.3 0.2-0.6 0.4-0.2 0.1-0.3 0.1-0.4 0.2-0.6 0.4-0.1 0.1-0.2 0.2-0.3 0.2-0.6 0.4 1 2.4 1.5 4.9 1.4-0.7 3-1 0.1-0.1 0.2-0.1 0.3-0.1 0.7-0.1 0.2-0.1 0.3-0.1 0.4 0 0.7-0.1 0.1 0 0.3 0 0.1 0 0.1 0 0.1 0 0.1 0h0.1q0.2-0.1 0.5-0.1 0.6 0 1.2 0 0.6 0 1.2 0 0.3 0 0.5 0.1h0.1q0.1 0 0.2 0 0.2 0 0.4 0 0.3 0.1 0.6 0.1 0.2 0 0.4 0.1 0.3 0 0.7 0.1 0.1 0 0.1 0.1 1.6 0.3 3 1 0.6-2.5 1.5-4.9-0.2-0.2-0.6-0.4 0-0.1-0.1-0.2zm14.3 2.1c-0.8-1.3-1.3-2.8-1.4-4.3 0-1.7-1.5-3.2-4.4-4.7q0 0-0.1 0.1l-0.5 0.4q-0.2 0.3-0.5 0.6-0.1 0.1-0.2 0.2-0.2 0.2-0.4 0.4-0.1 0.1-0.2 0.3-0.2 0.2-0.4 0.4-0.1 0.2-0.2 0.3-0.6 0.7-1.2 1.6-0.1 0.1-0.1 0.1-0.3 0.4-0.5 0.9-0.1 0-0.1 0.1-0.6 1.1-1.2 2.2v0.1q-0.3 0.7-0.5 1.4-0.1 0.2-0.2 0.4-0.1 0.4-0.3 0.9-0.1 0.3-0.2 0.7 0 0.2-0.1 0.4c0.9-0.4 1.9-0.6 2.9-0.6 0.6 0 1.1 0.4 1.1 1 0 0.6-0.5 1.1-1.1 1.1-1-0.1-1.9 0.2-2.7 0.8q0.8 0.6 1.4 1.2c0.4 0.4 0.4 1.1-0.1 1.5-0.4 0.4-1 0.3-1.4-0.1q-1-0.9-2.1-1.6-0.1 0-0.1 0-1.9-1-4-1.5-0.1 0-0.2 0-0.4-0.1-0.8-0.2h-0.1q-0.2 0-0.3 0-0.4-0.1-0.7-0.1-0.1 0-0.2 0-0.6 0-1.2 0-0.6 0-1.2 0-0.1 0-0.2 0-0.3 0.1-0.6 0.1-0.2 0-0.4 0-0.1 0-0.1 0.1-0.4 0-0.8 0.1-0.1 0-0.1 0-0.1 0-0.1 0-0.5 0.1-0.9 0.3h-0.1q-1.5 0.4-3 1.2-1.2 0.7-2.1 1.6c-0.4 0.4-1.1 0.5-1.5 0.1-0.4-0.4-0.5-1.1-0.1-1.5q0.7-0.6 1.4-1.2c-0.8-0.6-1.7-0.9-2.7-0.8-0.6 0-1-0.5-1-1.1 0-0.6 0.4-1 1-1 1 0 2 0.2 2.9 0.6q0-0.2-0.1-0.4-0.1-0.4-0.2-0.7-0.1-0.5-0.3-0.9-0.1-0.2-0.1-0.4-0.3-0.7-0.6-1.4-1.2-2.8-3.1-5.1 0 0-0.1-0.1-0.2-0.3-0.5-0.5 0-0.1-0.1-0.2-0.2-0.3-0.4-0.5-0.1-0.1-0.2-0.2-0.3-0.3-0.6-0.5l-0.5-0.5-0.1-0.1c-2.9 1.5-4.3 3-4.3 4.7-0.2 1.5-0.7 3-1.5 4.3-1.8 3.1-2.7 6.6-2.7 10.2 0 2.5 0.6 5 1.9 7.2 0.7 1.3 1.1 2.7 1.2 4.2 0 3 2.7 12.5 7.3 12.5 2.2-0.1 4.3-0.6 6.3-1.4v-8.1c-1.2 1-2.7 1.6-4.2 1.5-0.6 0-1-0.5-1-1 0-0.6 0.4-1.1 1-1.1 1.1 0.1 2.1-0.3 2.9-1.1q-0.9-0.5-1.6-1.3c-0.4-0.4-0.3-1.1 0.1-1.5 0.4-0.3 1.1-0.3 1.5 0.1q1.2 1.2 2.7 1.9 0.1 0 0.1 0 1.5 0.8 3.2 1.2 0 0 0.1 0 0.8 0.2 1.6 0.3 0.1 0 0.3 0 0.8 0.1 1.6 0.1 0.9 0 1.7-0.1 0.1 0 0.3 0 0.8-0.1 1.5-0.3 0.1 0 0.2 0 0.8-0.2 1.5-0.5 0.1 0 0.1 0 0.8-0.3 1.5-0.7h0.1q1.5-0.7 2.8-1.9c0.4-0.4 1-0.4 1.4-0.1 0.5 0.4 0.5 1.1 0.1 1.5q-0.7 0.8-1.6 1.3c0.8 0.8 1.8 1.2 2.9 1.1 0.6 0 1.1 0.5 1.1 1.1 0 0.5-0.5 1-1.1 1-1.5 0.1-3-0.5-4.1-1.5v8.1c2 0.8 4.1 1.3 6.2 1.4 4.6 0 7.3-9.5 7.3-12.5 0.1-1.5 0.5-2.9 1.3-4.2 1.2-2.2 1.8-4.7 1.8-7.2 0-3.6-0.9-7.1-2.7-10.2zm-18.9 25.4q-0.2 0.1-0.4 0.1-0.5 0.1-1 0.1-0.3 0.1-0.5 0.1-0.7 0-1.5 0.1-0.8-0.1-1.5-0.1-0.2 0-0.4-0.1-0.6 0-1.1-0.1-0.2 0-0.4-0.1-1.4-0.2-2.8-0.7 0 0 0 0v3.4q0.2 0 0.5 0.1 0.4 0.1 0.7 0.2 0.5 0.1 1 0.1 0.4 0.1 0.7 0.1 0.6 0.1 1.2 0.2 0.2 0 0.4 0 1.7 0.1 3.4 0 0.2 0 0.5 0 0.6-0.1 1.2-0.2 0.3 0 0.6-0.1 0.5 0 1-0.1 0.4-0.1 0.7-0.2 0.3-0.1 0.6-0.1v-3.4q-0.1 0-0.1 0-1.3 0.5-2.8 0.7zm1.9 5q-0.5 0.1-1.1 0.2-0.4 0.1-0.7 0.1-0.5 0.1-1.1 0.1-0.3 0.1-0.7 0.1-0.6 0-1.2 0-0.3 0-0.5 0-0.2 0-0.4 0-0.7 0-1.3 0-0.3 0-0.7-0.1-0.5 0-1.1-0.1-0.3 0-0.7-0.1-0.5-0.1-1.1-0.2-0.3-0.1-0.6-0.1-0.2-0.1-0.3-0.1v3.3c0 0.3 0.2 0.6 0.6 0.6h11.3c0.3 0 0.6-0.3 0.6-0.6v-3.3q-0.2 0-0.4 0.1-0.3 0-0.6 0.1z"/></svg>